<?xml version="1.0" encoding="UTF-8"?>
<svg xmlns="http://www.w3.org/2000/svg" xmlns:xlink="http://www.w3.org/1999/xlink" width="375pt" height="374.999991pt" viewBox="0 0 375 374.999991" version="1.2">
<defs>
<clipPath id="clip1">
  <path d="M 130.160156 126.488281 L 244.910156 126.488281 L 244.910156 248.738281 L 130.160156 248.738281 Z M 130.160156 126.488281 "/>
</clipPath>
<clipPath id="clip2">
  <path d="M 154.3125 155.847656 L 219.953125 155.847656 L 219.953125 218.558594 L 154.3125 218.558594 Z M 154.3125 155.847656 "/>
</clipPath>
</defs>
<g id="surface1">
<rect x="0" y="0" width="375" height="374.999991" style="fill:rgb(100%,100%,100%);fill-opacity:1;stroke:none;"/>
<path style=" stroke:none;fill-rule:nonzero;fill:rgb(100%,14.898682%,48.629761%);fill-opacity:1;" d="M 182.949219 129.070312 L 137.78125 150.480469 C 134.113281 152.257812 131.761719 155.988281 131.761719 160.121094 L 131.820312 215.105469 C 131.820312 219.179688 134.167969 222.96875 137.894531 224.691406 L 183.007812 246.15625 C 185.871094 247.535156 189.253906 247.535156 192.121094 246.15625 L 237.289062 224.691406 C 241.011719 222.910156 243.363281 219.179688 243.363281 215.050781 L 243.363281 160.066406 C 243.363281 155.933594 241.011719 152.203125 237.289062 150.480469 L 192.0625 129.070312 C 189.195312 127.695312 185.871094 127.695312 182.949219 129.070312 Z M 182.949219 129.070312 "/>
<g clip-path="url(#clip1)" clip-rule="nonzero">
<path style=" stroke:none;fill-rule:nonzero;fill:rgb(100%,14.898682%,48.629761%);fill-opacity:1;" d="M 187.535156 248.738281 C 185.757812 248.738281 183.980469 248.335938 182.316406 247.535156 L 137.207031 226.070312 C 133.023438 224.058594 130.273438 219.753906 130.273438 215.105469 L 130.214844 160.121094 C 130.214844 155.417969 132.910156 151.113281 137.152344 149.101562 L 182.316406 127.695312 C 185.644531 126.144531 189.425781 126.144531 192.75 127.695312 L 237.917969 149.160156 C 242.160156 151.167969 244.855469 155.472656 244.855469 160.121094 L 244.855469 215.105469 C 244.855469 219.753906 242.101562 224.117188 237.917969 226.125 L 192.75 247.589844 C 191.089844 248.335938 189.3125 248.738281 187.535156 248.738281 Z M 183.636719 130.449219 L 138.46875 151.859375 C 135.316406 153.351562 133.253906 156.621094 133.253906 160.121094 L 133.308594 215.105469 C 133.308594 218.605469 135.375 221.820312 138.527344 223.3125 L 183.636719 244.777344 C 186.101562 245.984375 188.96875 245.984375 191.433594 244.777344 L 236.601562 223.3125 C 239.753906 221.820312 241.816406 218.609375 241.816406 215.105469 L 241.816406 160.121094 C 241.816406 156.621094 239.753906 153.40625 236.601562 151.914062 L 191.433594 130.449219 C 188.96875 129.246094 186.101562 129.246094 183.636719 130.449219 Z M 183.636719 130.449219 "/>
</g>
<path style=" stroke:none;fill-rule:nonzero;fill:rgb(0%,0%,0%);fill-opacity:1;" d="M 166.136719 171.269531 L 163.40625 171.269531 L 163.40625 157.816406 C 163.40625 157.636719 163.4375 157.460938 163.507812 157.292969 C 163.578125 157.125 163.675781 156.976562 163.804688 156.847656 C 163.929688 156.71875 164.078125 156.621094 164.246094 156.550781 C 164.414062 156.480469 164.589844 156.449219 164.769531 156.449219 L 176.480469 156.449219 C 176.660156 156.449219 176.835938 156.484375 177 156.550781 C 177.167969 156.621094 177.3125 156.722656 177.4375 156.847656 C 177.5625 156.976562 177.660156 157.125 177.726562 157.292969 C 177.792969 157.460938 177.824219 157.632812 177.820312 157.8125 L 177.820312 160.851562 L 175.125 160.851562 L 175.125 159.148438 L 166.140625 159.148438 Z M 166.136719 171.269531 "/>
<path style=" stroke:none;fill-rule:nonzero;fill:rgb(0%,0%,0%);fill-opacity:1;" d="M 195.792969 180.578125 C 195.179688 179.972656 194.445312 179.671875 193.582031 179.679688 C 193.15625 179.664062 192.746094 179.734375 192.351562 179.890625 C 191.957031 180.046875 191.609375 180.273438 191.308594 180.574219 C 191.007812 180.875 190.78125 181.226562 190.625 181.621094 C 190.46875 182.015625 190.394531 182.425781 190.410156 182.851562 C 190.410156 183.714844 190.710938 184.453125 191.308594 185.070312 L 191.789062 185.476562 L 193.703125 187.394531 L 194.109375 187.867188 C 194.414062 188.15625 194.757812 188.375 195.148438 188.53125 C 195.535156 188.683594 195.9375 188.761719 196.355469 188.761719 C 196.773438 188.761719 197.175781 188.683594 197.5625 188.53125 C 197.953125 188.375 198.296875 188.15625 198.601562 187.867188 C 199.21875 187.234375 199.519531 186.476562 199.5 185.589844 C 199.507812 184.726562 199.207031 183.984375 198.601562 183.371094 Z M 195.792969 180.578125 "/>
<g clip-path="url(#clip2)" clip-rule="nonzero">
<path style=" stroke:none;fill-rule:nonzero;fill:rgb(0%,0%,0%);fill-opacity:1;" d="M 218.996094 183.78125 L 188.0625 156.203125 C 187.800781 155.984375 187.503906 155.871094 187.164062 155.871094 C 186.824219 155.871094 186.523438 155.984375 186.265625 156.203125 L 155.273438 183.78125 C 155.070312 183.976562 154.9375 184.214844 154.875 184.488281 C 154.8125 184.765625 154.832031 185.035156 154.933594 185.300781 C 155.039062 185.554688 155.210938 185.757812 155.441406 185.910156 C 155.671875 186.0625 155.925781 186.136719 156.199219 186.136719 L 163.40625 186.136719 L 163.40625 217.292969 C 163.414062 217.46875 163.453125 217.636719 163.523438 217.796875 C 163.597656 217.957031 163.695312 218.097656 163.824219 218.21875 C 163.949219 218.339844 164.097656 218.433594 164.261719 218.5 C 164.425781 218.5625 164.59375 218.59375 164.769531 218.589844 L 209.566406 218.589844 C 209.734375 218.585938 209.902344 218.550781 210.058594 218.484375 C 210.214844 218.417969 210.355469 218.324219 210.476562 218.203125 C 210.597656 218.082031 210.691406 217.941406 210.757812 217.785156 C 210.828125 217.628906 210.863281 217.460938 210.863281 217.292969 L 210.863281 186.132812 L 218.132812 186.132812 C 218.410156 186.136719 218.660156 186.0625 218.890625 185.910156 C 219.117188 185.757812 219.28125 185.554688 219.382812 185.296875 C 219.464844 185.027344 219.46875 184.757812 219.398438 184.484375 C 219.332031 184.214844 219.195312 183.976562 218.996094 183.78125 Z M 200.476562 189.753906 C 200.207031 190.03125 199.910156 190.277344 199.59375 190.496094 C 199.273438 190.710938 198.933594 190.894531 198.578125 191.046875 C 198.222656 191.195312 197.855469 191.308594 197.476562 191.386719 C 197.097656 191.460938 196.714844 191.5 196.328125 191.5 C 195.941406 191.5 195.558594 191.460938 195.179688 191.386719 C 194.800781 191.308594 194.433594 191.195312 194.078125 191.046875 C 193.722656 190.894531 193.386719 190.710938 193.066406 190.496094 C 192.746094 190.277344 192.449219 190.03125 192.179688 189.753906 L 191.777344 189.320312 L 181.515625 199.550781 L 184.164062 202.179688 L 182.246094 204.101562 L 179.664062 201.453125 L 177.738281 203.386719 L 181.308594 206.964844 L 179.390625 208.882812 L 175.816406 205.300781 L 173.488281 207.636719 L 171.574219 205.714844 L 173.902344 203.382812 L 175.816406 201.464844 L 189.855469 187.402344 L 189.449219 186.992188 C 188.882812 186.457031 188.445312 185.828125 188.136719 185.109375 C 187.828125 184.390625 187.679688 183.640625 187.679688 182.859375 C 187.671875 182.074219 187.820312 181.324219 188.128906 180.601562 C 188.4375 179.882812 188.875 179.253906 189.449219 178.722656 C 189.722656 178.453125 190.019531 178.210938 190.335938 178 C 190.65625 177.789062 190.992188 177.613281 191.347656 177.46875 C 191.703125 177.320312 192.066406 177.210938 192.441406 177.136719 C 192.816406 177.066406 193.195312 177.027344 193.578125 177.027344 C 193.960938 177.027344 194.339844 177.066406 194.714844 177.136719 C 195.089844 177.210938 195.457031 177.320312 195.8125 177.46875 C 196.164062 177.613281 196.5 177.789062 196.820312 178 C 197.140625 178.210938 197.4375 178.453125 197.710938 178.722656 L 200.476562 181.464844 C 200.753906 181.734375 200.996094 182.027344 201.214844 182.347656 C 201.429688 182.667969 201.613281 183.007812 201.761719 183.363281 C 201.910156 183.71875 202.023438 184.085938 202.097656 184.464844 C 202.171875 184.839844 202.210938 185.222656 202.210938 185.609375 C 202.210938 185.996094 202.171875 186.378906 202.097656 186.757812 C 202.023438 187.132812 201.910156 187.5 201.761719 187.859375 C 201.613281 188.214844 201.429688 188.550781 201.214844 188.871094 C 200.996094 189.191406 200.753906 189.484375 200.476562 189.757812 Z M 200.476562 189.753906 "/>
</g>
</g>
</svg>
